<?xml version="1.0" encoding="UTF-8"?>
<svg version="1.1" xmlns="http://www.w3.org/2000/svg" width="1024" height="1024">
<path d="M0 0 C337.92 0 675.84 0 1024 0 C1024 337.92 1024 675.84 1024 1024 C686.08 1024 348.16 1024 0 1024 C0 686.08 0 348.16 0 0 Z " fill="#F9FAF6" transform="translate(0,0)"/>
<path d="M0 0 C1.66303674 1.42546007 3.32595868 2.85105075 4.98828125 4.27734375 C6.29596125 5.3971241 7.60574625 6.51445252 8.91796875 7.62890625 C9.52253906 8.14324219 10.12710938 8.65757812 10.75 9.1875 C11.30171875 9.65542969 11.8534375 10.12335938 12.421875 10.60546875 C14.02502187 12.02211091 15.57246766 13.40477561 17 15 C17 15.66 17 16.32 17 17 C17.66 17 18.32 17 19 17 C19 17.66 19 18.32 19 19 C20.485 19.495 20.485 19.495 22 20 C22 20.66 22 21.32 22 22 C22.66 22 23.32 22 24 22 C24 22.66 24 23.32 24 24 C24.66 24 25.32 24 26 24 C26 24.66 26 25.32 26 26 C26.66 26 27.32 26 28 26 C28 26.66 28 27.32 28 28 C28.61875 28.2475 29.2375 28.495 29.875 28.75 C32.35068687 30.20628639 32.95125002 31.37812506 34 34 C34.66 34 35.32 34 36 34 C36 34.66 36 35.32 36 36 C36.66 36 37.32 36 38 36 C38 36.66 38 37.32 38 38 C38.66 38 39.32 38 40 38 C40 38.66 40 39.32 40 40 C40.66 40 41.32 40 42 40 C43.625 41.375 43.625 41.375 45 43 C45 43.66 45 44.32 45 45 C45.66 45 46.32 45 47 45 C47 45.66 47 46.32 47 47 C48.485 47.495 48.485 47.495 50 48 C50 48.66 50 49.32 50 50 C50.66 50 51.32 50 52 50 C52 50.66 52 51.32 52 52 C52.66 52 53.32 52 54 52 C54 52.66 54 53.32 54 54 C54.66 54 55.32 54 56 54 C56 54.66 56 55.32 56 56 C56.66 56 57.32 56 58 56 C58 56.66 58 57.32 58 58 C58.66 58 59.32 58 60 58 C60 58.66 60 59.32 60 60 C60.66 60 61.32 60 62 60 C64.125 61.875 64.125 61.875 66 64 C66 64.66 66 65.32 66 66 C66.66 66 67.32 66 68 66 C68 66.66 68 67.32 68 68 C68.66 68 69.32 68 70 68 C71.35386936 69.65002828 72.68678142 71.3174387 74 73 C74.66 73.33 75.32 73.66 76 74 C76 74.66 76 75.32 76 76 C76.66 76 77.32 76 78 76 C79.625 77.375 79.625 77.375 81 79 C81 79.66 81 80.32 81 81 C81.66 81 82.32 81 83 81 C84.625 82.375 84.625 82.375 86 84 C86 84.66 86 85.32 86 86 C86.66 86 87.32 86 88 86 C89.33895632 87.66215268 90.67130142 89.32963607 92 91 C92.9075 91.721875 93.815 92.44375 94.75 93.1875 C95.4925 93.785625 96.235 94.38375 97 95 C97 95.66 97 96.32 97 97 C97.66 97 98.32 97 99 97 C99 97.66 99 98.32 99 99 C99.99 99.33 100.98 99.66 102 100 C102 100.66 102 101.32 102 102 C102.66 102 103.32 102 104 102 C104 102.66 104 103.32 104 104 C104.66 104 105.32 104 106 104 C107.35386936 105.65002828 108.68678142 107.3174387 110 109 C110.66 109.33 111.32 109.66 112 110 C112 110.66 112 111.32 112 112 C112.66 112 113.32 112 114 112 C114 112.66 114 113.32 114 114 C114.66 114 115.32 114 116 114 C116 114.66 116 115.32 116 116 C116.66 116 117.32 116 118 116 C118 116.66 118 117.32 118 118 C118.66 118 119.32 118 120 118 C121.33333333 119.66666667 122.66666667 121.33333333 124 123 C125.46038252 124.20075896 126.92173989 125.40043137 128.39453125 126.5859375 C130.10795982 128.0950887 131.52677191 129.69337607 133 131.4375 C138.06347958 137.38652086 143.70436 142.78876418 149.25830078 148.27416992 C152.88953514 151.87231903 156.49524871 155.49584027 160.09741211 159.12306213 C162.18187095 161.22104599 164.26912517 163.31624031 166.35644531 165.41137695 C167.45304397 166.51302531 168.54874636 167.61556655 169.64355469 168.71899414 C171.23914874 170.32677742 172.83800436 171.93125554 174.4375 173.53515625 C175.16271851 174.26811668 175.16271851 174.26811668 175.90258789 175.0158844 C178.78670252 177.90046853 181.79605519 180.48010155 185 183 C186.20085713 184.30262468 187.36999075 185.63546053 188.5 187 C190.43477883 189.26836139 192.1631184 191.13049472 194.5 193 C196.81795039 194.85436031 198.52168682 196.68631471 200.4375 198.9375 C202.54688025 201.411352 204.48374843 203.40312369 207 205.5 C209.33779085 207.44815904 211.03984316 209.13321703 212.96484375 211.42578125 C217.41505972 216.57035715 222.20839194 221.35878471 227.02514648 226.15551758 C228.56676398 227.69174908 230.10292808 229.23328967 231.63867188 230.77539062 C232.63509603 231.77115428 233.63183019 232.76660786 234.62890625 233.76171875 C235.51650635 234.64819092 236.40410645 235.53466309 237.31860352 236.44799805 C240.11753807 239.11186611 243.02101106 241.54129775 246 244 C247.05834834 245.13274471 248.0875072 246.29476108 249.0625 247.5 C252.73488757 251.90306934 256.71263075 255.76924338 261.0625 259.5 C264.06711177 262.12334475 266.87566795 264.58259627 269 268 C268.75 270.3125 268.75 270.3125 268 272 C267.34 272 266.68 272 266 272 C266 272.66 266 273.32 266 274 C265.34 274 264.68 274 264 274 C264 274.66 264 275.32 264 276 C262.125 278.125 262.125 278.125 260 280 C259.34 280 258.68 280 258 280 C258 280.66 258 281.32 258 282 C256.125 284.125 256.125 284.125 254 286 C253.34 286 252.68 286 252 286 C252 286.66 252 287.32 252 288 C251.34 288 250.68 288 250 288 C249.7525 288.61875 249.505 289.2375 249.25 289.875 C247.79371361 292.35068687 246.62187494 292.95125002 244 294 C244 294.66 244 295.32 244 296 C243.34 296 242.68 296 242 296 C242 296.66 242 297.32 242 298 C241.34 298 240.68 298 240 298 C240 298.66 240 299.32 240 300 C239.34 300 238.68 300 238 300 C238 300.66 238 301.32 238 302 C237.34 302 236.68 302 236 302 C236 302.66 236 303.32 236 304 C235.34 304 234.68 304 234 304 C233.34 305.32 232.68 306.64 232 308 C231.34 308 230.68 308 230 308 C230 308.66 230 309.32 230 310 C229.34 310 228.68 310 228 310 C228 310.66 228 311.32 228 312 C227.34 312 226.68 312 226 312 C226 312.66 226 313.32 226 314 C225.34 314 224.68 314 224 314 C224 314.66 224 315.32 224 316 C223.34 316 222.68 316 222 316 C222 316.66 222 317.32 222 318 C221.34 318 220.68 318 220 318 C220 318.66 220 319.32 220 320 C219.34 320 218.68 320 218 320 C217.34 321.32 216.68 322.64 216 324 C215.34 324 214.68 324 214 324 C214 324.66 214 325.32 214 326 C213.34 326 212.68 326 212 326 C212 326.66 212 327.32 212 328 C211.34 328 210.68 328 210 328 C210 328.66 210 329.32 210 330 C208.125 332.125 208.125 332.125 206 334 C205.34 334 204.68 334 204 334 C204 334.66 204 335.32 204 336 C203.34 336 202.68 336 202 336 C201.7525 336.57234375 201.505 337.1446875 201.25 337.734375 C199.80683801 340.35010611 198.11783778 342.14773456 196 344.25 C195.29875 344.95640625 194.5975 345.6628125 193.875 346.390625 C192 348 192 348 190 348 C189.34 349.32 188.68 350.64 188 352 C187.34 352 186.68 352 186 352 C185.79375 352.53625 185.5875 353.0725 185.375 353.625 C183.46749574 356.91978009 180.95180616 359.59363628 178 362 C177.34 362 176.68 362 176 362 C176 362.66 176 363.32 176 364 C175.34 364 174.68 364 174 364 C174 364.66 174 365.32 174 366 C173.34 366 172.68 366 172 366 C172 366.66 172 367.32 172 368 C171.34 368 170.68 368 170 368 C169.62875 368.86625 169.62875 368.86625 169.25 369.75 C167.81700012 372.32939979 166.21575324 374.06121592 164 376 C163.34 376 162.68 376 162 376 C161.34 377.32 160.68 378.64 160 380 C159.34 380 158.68 380 158 380 C158 380.66 158 381.32 158 382 C157.34 382 156.68 382 156 382 C156 382.66 156 383.32 156 384 C155.34 384 154.68 384 154 384 C153.7525 384.61875 153.505 385.2375 153.25 385.875 C151.76259631 388.40358627 150.56321991 388.71839004 148 390 C146.73195434 392.0335948 146.73195434 392.0335948 146 394 C145.34 394 144.68 394 144 394 C143.73461426 394.59004822 143.46922852 395.18009644 143.19580078 395.7880249 C141.96474737 398.06520981 140.68937484 399.56421812 138.8671875 401.39160156 C138.23312988 402.0319635 137.59907227 402.67232544 136.94580078 403.33209229 C136.26243652 404.01140808 135.57907227 404.69072388 134.875 405.390625 C134.1722998 406.09523865 133.46959961 406.79985229 132.74560547 407.52581787 C131.26189896 409.01088353 129.77567108 410.49343381 128.28710938 411.97363281 C126.00156409 414.24844325 123.72690983 416.5337536 121.453125 418.8203125 C120.01105781 420.26105868 118.56837065 421.70118465 117.125 423.140625 C116.44163574 423.82803772 115.75827148 424.51545044 115.05419922 425.22369385 C114.4201416 425.85144714 113.78608398 426.47920044 113.1328125 427.12597656 C112.57480957 427.68238831 112.01680664 428.23880005 111.44189453 428.81207275 C110 430 110 430 108 430 C108 430.66 108 431.32 108 432 C107.34 432 106.68 432 106 432 C105.67008057 432.81691315 105.67008057 432.81691315 105.33349609 433.65032959 C103.56652952 436.76379134 101.18457975 439.09408862 98.6640625 441.59472656 C97.84914337 442.41490265 97.84914337 442.41490265 97.01776123 443.25164795 C95.22516477 445.05302948 93.42537258 446.84701768 91.625 448.640625 C90.37682289 449.89014929 89.12894281 451.13997035 87.88134766 452.39007568 C85.26854023 455.00582968 82.65215399 457.61793646 80.03320312 460.22753906 C76.67024761 463.57907676 73.316381 466.93954389 69.96511841 470.30276871 C67.39174416 472.88335399 64.81364522 475.45917646 62.23406982 478.03356171 C60.99498501 479.27130915 59.75739297 480.5105528 58.52130127 481.75128937 C56.79762761 483.48001837 55.06771477 485.20224581 53.3359375 486.92285156 C52.56597443 487.69888733 52.56597443 487.69888733 51.78045654 488.49060059 C48.22853184 492 48.22853184 492 46 492 C46 492.66 46 493.32 46 494 C45.34 494 44.68 494 44 494 C43.62846298 494.85951263 43.62846298 494.85951263 43.24942017 495.73638916 C41.80397834 498.35513814 40.13094551 500.10912164 38.00927734 502.21777344 C37.18857758 503.03832214 36.36787781 503.85887085 35.52230835 504.70428467 C34.63580597 505.58046448 33.74930359 506.45664429 32.8359375 507.359375 C31.47512558 508.71594208 31.47512558 508.71594208 30.08682251 510.09991455 C27.68115581 512.49796458 25.26954264 514.88994618 22.85662842 517.28070068 C20.39297656 519.72385171 17.93501423 522.17271206 15.4765625 524.62109375 C10.65626427 529.41933788 5.83030157 534.21182732 1 539 C-2.89294472 537.4038371 -5.36280311 534.89094188 -8.31933594 531.93945312 C-8.83685928 531.42543442 -9.35438263 530.91141571 -9.8875885 530.38182068 C-11.59157316 528.68661724 -13.28816332 526.98422842 -14.984375 525.28125 C-16.1666386 524.10033367 -17.34919896 522.91971437 -18.53204346 521.73937988 C-21.00656256 519.2678068 -23.47743386 516.79265826 -25.94580078 514.31494141 C-29.1157369 511.13358613 -32.29459982 507.96132623 -35.47622299 504.79166412 C-37.91783936 502.35725911 -40.35469145 499.9181301 -42.79010773 497.4775238 C-43.96086917 496.30542515 -45.13312649 495.13481874 -46.30687714 493.9657135 C-47.9422101 492.33543655 -49.57103294 490.69892678 -51.19824219 489.06054688 C-52.59245392 487.66394836 -52.59245392 487.66394836 -54.01483154 486.23913574 C-56 484 -56 484 -56 482 C-57.32 481.34 -58.64 480.68 -60 480 C-60 479.34 -60 478.68 -60 478 C-60.639375 477.731875 -61.27875 477.46375 -61.9375 477.1875 C-64 476 -64 476 -65 473 C-63.47005208 471.76302083 -61.94010417 470.52604167 -60.41015625 469.2890625 C-58.86733563 468.0333609 -58.86733563 468.0333609 -58 466 C-57.34 466 -56.68 466 -56 466 C-56 465.34 -56 464.68 -56 464 C-55.34 464 -54.68 464 -54 464 C-54 463.34 -54 462.68 -54 462 C-53.34 462 -52.68 462 -52 462 C-52 461.34 -52 460.68 -52 460 C-51.34 460 -50.68 460 -50 460 C-50 459.34 -50 458.68 -50 458 C-48.64453125 456.66796875 -48.64453125 456.66796875 -46.8125 455.1875 C-43.67038073 452.63410025 -40.8536783 449.87271826 -38 447 C-26.5 435.5 -26.5 435.5 -15 424 C-14.19304687 423.19232178 -13.38609375 422.38464355 -12.5546875 421.55249023 C-10.18845034 419.18828826 -7.81770229 416.82873954 -5.44519043 414.47084045 C-3.08219896 412.12134894 -0.72196753 409.76909237 1.63818359 407.41674805 C2.87849968 406.18147389 4.11970998 404.94709695 5.36181641 403.71362305 C7.17069811 401.91694735 8.97626249 400.11699311 10.78125 398.31640625 C11.33035034 397.77246719 11.87945068 397.22852814 12.44519043 396.66810608 C14.97946858 394.1341932 17.39576755 391.57765282 19.66479492 388.80200195 C21.55784392 386.53054107 23.31354567 384.71319155 25.58203125 382.8515625 C31.25585043 378.00731134 36.43862733 372.66820578 41.6875 367.375 C42.71655953 366.34090959 43.74585507 365.30705398 44.77539062 364.2734375 C46.66772395 362.37302143 48.5584121 360.471024 50.44799805 358.56787109 C52.1905387 356.81449478 53.94108469 355.06904732 55.69848633 353.33056641 C57.99400928 351.00606634 59.9688679 348.55529522 62 346 C64.125 343.6875 64.125 343.6875 66 342 C66.66 342 67.32 342 68 342 C68 341.34 68 340.68 68 340 C69.64351457 338.63823078 71.31522656 337.31037934 73 336 C75.70953375 333.41649107 77.92095344 331.11856984 80 328 C80.66 328 81.32 328 82 328 C82 327.34 82 326.68 82 326 C82.66 326 83.32 326 84 326 C84 325.34 84 324.68 84 324 C84.66 324 85.32 324 86 324 C86 323.34 86 322.68 86 322 C86.66 322 87.32 322 88 322 C88 321.34 88 320.68 88 320 C88.66 320 89.32 320 90 320 C90 319.34 90 318.68 90 318 C91.35546875 316.703125 91.35546875 316.703125 93.1875 315.25 C95.58770339 313.267432 97.42797251 311.48423825 99.4375 309.0625 C101.40274363 306.7137942 103.07789299 305.00888934 105.3828125 303.078125 C110.77426612 298.41559444 115.77497984 293.37512782 120.80249023 288.32788086 C122.45507182 286.66987045 124.11302199 285.01736024 125.77148438 283.36523438 C126.82584219 282.31021689 127.87989038 281.25488986 128.93359375 280.19921875 C129.42830673 279.70653 129.92301971 279.21384125 130.432724 278.70622253 C133.04413458 276.0997262 133.04413458 276.0997262 135 273 C135.66 273 136.32 273 137 273 C137 272.34 137 271.68 137 271 C137.66 271 138.32 271 139 271 C136.34144984 265.74269121 132.27133757 262.00517901 128.135849 257.90879822 C127.32615349 257.09880499 126.51645798 256.28881176 125.68222624 255.45427328 C122.96466301 252.73810033 120.24001709 250.02914484 117.51538086 247.32006836 C115.56646246 245.37611446 113.61907389 243.43063075 111.67164612 241.48518372 C107.47594171 237.29524944 103.27670343 233.1088843 99.07514763 228.92481804 C92.99724131 222.87202638 86.92582471 216.81275806 80.85616297 210.75170011 C71.00388522 200.91355351 61.14788016 191.07915067 51.28881836 181.24780273 C50.69889776 180.65953776 50.10897716 180.07127278 49.50118018 179.4651816 C45.3133855 175.28918873 41.12545771 171.11332937 36.9375 166.9375 C32.15184404 162.16570179 27.36624971 157.3938418 22.58081055 152.62182617 C21.9913044 152.03397628 21.40179825 151.44612638 20.79442828 150.84046286 C10.97097371 141.04436466 1.15143421 131.24435111 -8.66530889 121.44152743 C-14.7213622 115.39444281 -20.78095332 109.35094477 -26.84512483 103.31200112 C-30.99774166 99.17621587 -35.14683546 95.03691885 -39.2931555 90.89482086 C-41.68675569 88.50391463 -44.08199853 86.11471413 -46.48163223 83.72986221 C-49.07997281 81.14588156 -51.67214103 78.55586417 -54.26283264 75.96421814 C-55.02536836 75.20887234 -55.78790408 74.45352654 -56.57354695 73.67529148 C-57.61131343 72.63340194 -57.61131343 72.63340194 -58.6700449 71.57046413 C-59.26913624 70.97321638 -59.86822759 70.37596862 -60.48547322 69.76062244 C-62.05258869 67.93886617 -63.0250331 66.18766837 -64 64 C-62.625 62.5 -62.625 62.5 -61 61 C-60.34 61 -59.68 61 -59 61 C-58.67 60.01 -58.34 59.02 -58 58 C-57.34 58 -56.68 58 -56 58 C-56 57.34 -56 56.68 -56 56 C-55.34 56 -54.68 56 -54 56 C-53.34 54.68 -52.68 53.36 -52 52 C-51.34 52 -50.68 52 -50 52 C-49.34 50.68 -48.68 49.36 -48 48 C-47.34 48 -46.68 48 -46 48 C-45.7525 47.38125 -45.505 46.7625 -45.25 46.125 C-43.79371361 43.64931313 -42.62187494 43.04874998 -40 42 C-40 41.34 -40 40.68 -40 40 C-39.34 40 -38.68 40 -38 40 C-37.34 38.68 -36.68 37.36 -36 36 C-35.34 36 -34.68 36 -34 36 C-33.34 34.68 -32.68 33.36 -32 32 C-31.34 32 -30.68 32 -30 32 C-30 31.34 -30 30.68 -30 30 C-29.34 30 -28.68 30 -28 30 C-27.505 28.515 -27.505 28.515 -27 27 C-26.34 27 -25.68 27 -25 27 C-25 26.34 -25 25.68 -25 25 C-24.34 25 -23.68 25 -23 25 C-23 24.34 -23 23.68 -23 23 C-22.34 23 -21.68 23 -21 23 C-20.505 21.515 -20.505 21.515 -20 20 C-19.34 20 -18.68 20 -18 20 C-17.731875 19.360625 -17.46375 18.72125 -17.1875 18.0625 C-16 16 -16 16 -13 15 C-11.79117904 12.99983534 -11.79117904 12.99983534 -11 11 C-10.34 11 -9.68 11 -9 11 C-8.773125 10.443125 -8.54625 9.88625 -8.3125 9.3125 C-6.62449964 6.33840412 -4.53323483 4.27991135 -2 2 C-1.34 2 -0.68 2 0 2 C0 1.34 0 0.68 0 0 Z " fill="#1BDBEB" transform="translate(279,241)"/>
<path d="M0 0 C40.23951115 -0.02202565 80.47901663 -0.0404974 120.71853208 -0.05106533 C125.46396606 -0.05231611 130.20940003 -0.05361042 134.95483398 -0.05493164 C135.89960594 -0.05519395 136.8443779 -0.05545626 137.81777931 -0.05572652 C153.1363069 -0.06008356 168.45483076 -0.06797129 183.77335613 -0.0771528 C199.47940308 -0.08648839 215.18544806 -0.09205541 230.89149767 -0.09408849 C240.591084 -0.09546392 250.29065977 -0.09981555 259.99024285 -0.10791647 C266.63221397 -0.11318277 273.27417959 -0.11480456 279.91615265 -0.11350138 C283.7541638 -0.11285781 287.59215644 -0.11387755 291.43016434 -0.11920547 C295.58117635 -0.12492618 299.73214843 -0.12300124 303.88316345 -0.12025452 C305.10979027 -0.12316736 306.33641709 -0.1260802 307.60021442 -0.12908131 C309.2543305 -0.12609474 309.2543305 -0.12609474 310.94186306 -0.12304783 C311.90141633 -0.12342755 312.86096961 -0.12380727 313.84960026 -0.1241985 C316 0 316 0 317 1 C317 31.03 317 61.06 317 92 C212.39 92 107.78 92 0 92 C0 61.64 0 31.28 0 0 Z " fill="#1BDBEB" transform="translate(530,686)"/>
<path d="M0 0 C4.47303826 3.0572601 8.23456561 7.13547523 12 11 C12.825 11.825 13.65 12.65 14.5 13.5 C15.325 14.325 16.15 15.15 17 16 C18.36125 17.299375 18.36125 17.299375 19.75 18.625 C22 21 22 21 23 24 C23.66 24 24.32 24 25 24 C25 24.66 25 25.32 25 26 C25.99 26 26.98 26 28 26 C28 26.66 28 27.32 28 28 C28.66 28.33 29.32 28.66 30 29 C31.766197 30.62490124 32.92101907 31.84203813 34 34 C34.99 34.433125 34.99 34.433125 36 34.875 C36.66 35.24625 37.32 35.6175 38 36 C38.33333333 37.33333333 38.66666667 38.66666667 39 40 C40.32407669 40.68486725 41.65909241 41.34870203 43 42 C43.61875 42.78375 44.2375 43.5675 44.875 44.375 C46.93608381 47.19497542 46.93608381 47.19497542 50.25 49.125 C51.1575 49.74375 52.065 50.3625 53 51 C53 51.99 53 52.98 53 54 C54.32 54.66 55.64 55.32 57 56 C57 56.66 57 57.32 57 58 C57.66 58 58.32 58 59 58 C59 58.66 59 59.32 59 60 C59.99 60.33 60.98 60.66 62 61 C65.4224231 63.42073829 67.20060429 65.28124886 69 69 C70.32392972 70.01241685 71.65599167 71.01439389 73 72 C73 72.66 73 73.32 73 74 C73.99 74.33 74.98 74.66 76 75 C76.33 75.99 76.66 76.98 77 78 C77.66 78 78.32 78 79 78 C79 78.66 79 79.32 79 80 C79.61875 80.309375 80.2375 80.61875 80.875 80.9375 C82.25 81.625 83.625 82.3125 85 83 C85 83.99 85 84.98 85 86 C85.66 86.33 86.32 86.66 87 87 C87.66 87.33 88.32 87.66 89 88 C89 88.66 89 89.32 89 90 C89.66 90.33 90.32 90.66 91 91 C91.66 91.33 92.32 91.66 93 92 C93 92.66 93 93.32 93 94 C94.32 94.66 95.64 95.32 97 96 C97 96.66 97 97.32 97 98 C97.804375 98.268125 98.60875 98.53625 99.4375 98.8125 C100.283125 99.204375 101.12875 99.59625 102 100 C102.33 100.99 102.66 101.98 103 103 C104.32848691 104.00642948 105.66150329 105.00692179 107 106 C107 106.66 107 107.32 107 108 C108.32 108.66 109.64 109.32 111 110 C111 110.66 111 111.32 111 112 C111.61875 112.2475 112.2375 112.495 112.875 112.75 C115.40358627 114.23740369 115.71839004 115.43678009 117 118 C117.66 118.33 118.32 118.66 119 119 C121.49016793 120.24508396 121.98686718 121.46716796 123 124 C123.66 124 124.32 124 125 124 C126.40234375 125.42578125 126.40234375 125.42578125 127.9375 127.3125 C129.46619303 129.17742731 130.94126352 130.94424782 132.69140625 132.60546875 C134 134 134 134 134 136 C135.65 136.66 137.3 137.32 139 138 C139 138.66 139 139.32 139 140 C139.99 140.33 140.98 140.66 142 141 C142 141.99 142 142.98 142 144 C142.66 144 143.32 144 144 144 C146 146 146 146 147 148 C147.5775 148.268125 148.155 148.53625 148.75 148.8125 C152.62931603 150.85991679 155.27655521 154.06652285 157.9375 157.5 C160.34914516 160.42320625 163.0672892 162.60595036 166 165 C168.875 167.6875 168.875 167.6875 171 170 C171 170.66 171 171.32 171 172 C171.639375 172.268125 172.27875 172.53625 172.9375 172.8125 C175 174 175 174 176 177 C176.825 177.495 177.65 177.99 178.5 178.5 C181 180 181 180 182 183 C183.69151518 184.49453704 183.69151518 184.49453704 185.75 185.875 C190.02986058 188.97579345 193.8410989 191.97192308 196.5 196.625 C198.29358736 199.46484666 200.1205449 200.34431332 203 202 C206 205.4137931 206 205.4137931 206 208 C206.99 208.33 207.98 208.66 209 209 C211.6875 211.4375 211.6875 211.4375 214 214 C214 214.66 214 215.32 214 216 C214.66 216 215.32 216 216 216 C216 216.66 216 217.32 216 218 C216.99 218.33 217.98 218.66 219 219 C221.127723 220.87239624 222.40184751 222.60277126 224 225 C224.99 225.66 225.98 226.32 227 227 C227.99 227.66 228.98 228.32 230 229 C230 229.66 230 230.32 230 231 C231.71659432 232.35803676 233.53184882 233.49830258 235.37109375 234.68359375 C237 236 237 236 238 239 C238.66 239.33 239.32 239.66 240 240 C240 240.66 240 241.32 240 242 C240.61875 242.061875 241.2375 242.12375 241.875 242.1875 C244 243 244 243 245.25 245.5625 C245.4975 246.366875 245.745 247.17125 246 248 C246.66 248 247.32 248 248 248 C248 248.66 248 249.32 248 250 C248.598125 250.09667969 249.19625 250.19335938 249.8125 250.29296875 C252.45880245 251.1482915 253.29435917 252.14800471 255 254.3125 C256.73197661 256.45768931 258.39200645 258.38169049 260.375 260.3125 C262 262 262 262 262 264 C262.61875 264.20625 263.2375 264.4125 263.875 264.625 C266.89772976 266.58088396 267.22844916 268.56309171 268 272 C266.74615087 275.76154738 264.85799698 277.27191198 262 280 C259.39384039 282.54100561 256.97049127 285.03668653 254.6875 287.875 C252.05465699 291.11993708 248.97490323 293.72068279 245.76953125 296.38671875 C243.77730559 298.07279422 243.77730559 298.07279422 242 301 C241.01 301.33 240.02 301.66 239 302 C238.608125 302.70125 238.21625 303.4025 237.8125 304.125 C235.63747409 307.57504111 233.01693835 309.69681144 229.91796875 312.3046875 C227.63403596 314.32347941 225.88571503 316.61142763 224 319 C222.01739574 320.68732277 220.0167658 322.35366057 218 324 C215.5637034 326.32298048 213.34577023 328.52124123 211.375 331.25 C210 333 210 333 207 334 C205.31784035 335.62168112 205.31784035 335.62168112 203.6875 337.625 C202.76710938 338.70587891 202.76710938 338.70587891 201.828125 339.80859375 C200.68968373 341.17326373 199.55380108 342.54007741 198.421875 343.91015625 C196.05841647 346.74008686 193.75307229 349.30955839 190.875 351.625 C187.9254564 353.89699133 187.9254564 353.89699133 185.75 356.8125 C185.1725 357.534375 184.595 358.25625 184 359 C183.34 359 182.68 359 182 359 C182 359.66 182 360.32 182 361 C181.34 361 180.68 361 180 361 C180 361.66 180 362.32 180 363 C178.56580496 364.2340748 177.12554257 365.46215372 175.6484375 366.64453125 C173.26598366 368.6035632 171.15185707 370.79296711 169 373 C147 395 147 395 145.08984375 396.875 C141.14880728 400.76447151 137.50440678 404.71683615 134 409 C131.8125 411.375 131.8125 411.375 130 413 C129.34 413 128.68 413 128 413 C127.67 413.66 127.34 414.32 127 415 C124.30467405 418.51209139 121.56653852 421.45229023 118.1875 424.3125 C114.29077696 427.6114303 111.03155967 431.26649046 107.76171875 435.1796875 C106 437 106 437 103 438 C101.80622985 439.69117438 100.61589612 441.38502048 99.453125 443.09765625 C97.4903559 445.66719537 95.18442461 447.56742995 92.6875 449.6015625 C90.80457712 451.11770402 90.80457712 451.11770402 88.5 453.5 C86.51492502 455.48507498 84.53807304 457.2260991 82.375 459 C79.50202082 461.41577389 77.91035581 463.76070101 76 467 C74.01739574 468.68732277 72.0167658 470.35366057 70 472 C69.071875 473.175625 69.071875 473.175625 68.125 474.375 C66.20123971 476.75140977 64.31570253 478.52609858 62 480.5 C58.93340739 483.11796147 56.44022323 485.77541931 54 489 C52.0199664 491.16566175 50.53435754 492.74853763 47.875 494 C45.85799491 494.83890994 45.85799491 494.83890994 45.125 496.8125 C43.76540748 499.45615212 41.88504157 500.88421885 39.58203125 502.7109375 C37.21584883 504.63893799 35.12815446 506.81584147 33 509 C19 523 19 523 16.4375 525.5 C13.99103107 527.92763704 13.99103107 527.92763704 12 530.5 C7.49018335 536.13727081 2.48757918 542.14427666 -5 543 C-5 542.34 -5 541.68 -5 541 C-3.55308533 539.57185364 -3.55308533 539.57185364 -1.53881836 537.90551758 C3.07124284 533.98275458 7.34837914 529.7960735 11.62109375 525.51171875 C12.40646011 524.72730911 13.19182648 523.94289948 14.00099182 523.13471985 C15.64503717 521.49135024 17.28783953 519.84673625 18.92944336 518.20092773 C21.4511722 515.67379852 23.97825164 513.15210712 26.50585938 510.63085938 C28.10709195 509.02896676 29.70801471 507.42676437 31.30859375 505.82421875 C32.44439125 504.6914576 32.44439125 504.6914576 33.60313416 503.53581238 C34.29798416 502.83781021 34.99283417 502.13980804 35.70874023 501.4206543 C36.32192612 500.80667282 36.935112 500.19269135 37.56687927 499.56010437 C39.09421803 498.04134153 39.09421803 498.04134153 40 496 C40.66 496 41.32 496 42 496 C42 495.34 42 494.68 42 494 C43.33155823 492.68721008 43.33155823 492.68721008 45.25610352 491.1105957 C51.11063532 486.1274607 56.4762231 480.66809812 61.90234375 475.23046875 C63.03180112 474.10168627 64.16140679 472.97305216 65.29115295 471.84455872 C67.64177288 469.49540344 69.99059853 467.14447305 72.33813477 464.79223633 C75.34984833 461.77478656 78.36608298 458.76190201 81.38364315 455.75030041 C83.70937067 453.42817829 86.03272141 451.10368995 88.35534859 448.77846718 C89.46741884 447.66572964 90.58023298 446.55373503 91.69379997 445.44249535 C93.24222409 443.89660164 94.78742241 442.34755509 96.33178711 440.79760742 C97.21144638 439.91715256 98.09110565 439.03669769 98.99742126 438.12956238 C101.03741859 436.16427831 101.03741859 436.16427831 102 434 C102.66 434 103.32 434 104 434 C104 433.34 104 432.68 104 432 C105.26879883 430.75024414 105.26879883 430.75024414 107.14453125 429.22265625 C113.02729503 424.21822629 118.41656363 418.73293595 123.86450195 413.26586914 C125.69044623 411.43454509 127.52170092 409.60865312 129.35351562 407.78320312 C130.5315709 406.6044873 131.70931609 405.42546146 132.88671875 404.24609375 C133.69625252 403.43959633 133.69625252 403.43959633 134.5221405 402.61680603 C137.0424567 400.08104457 139.44384568 397.51692149 141.71020508 394.75024414 C143.93889224 392.07339577 146.26206655 390.12950379 149 388 C149.33 387.34 149.66 386.68 150 386 C150.66 386 151.32 386 152 386 C152 385.34 152 384.68 152 384 C152.66 384 153.32 384 154 384 C154 383.34 154 382.68 154 382 C155.609375 380.44921875 155.609375 380.44921875 157.75 378.6875 C160.91761349 376.01237765 163.43092965 373.26074314 166 370 C166.66 370 167.32 370 168 370 C168 369.34 168 368.68 168 368 C168.66 368 169.32 368 170 368 C170 367.34 170 366.68 170 366 C170.66 366 171.32 366 172 366 C172 365.34 172 364.68 172 364 C173.5390625 362.51953125 173.5390625 362.51953125 175.625 360.8125 C178.33466777 358.5164131 180.75296716 356.24982196 183 353.5 C185.75274035 350.14556777 188.86445193 347.44069236 192.171875 344.64453125 C194.40041183 342.63980047 196.14897707 340.34937525 198 338 C198.66 338 199.32 338 200 338 C200 337.34 200 336.68 200 336 C201.875 333.875 201.875 333.875 204 332 C204.66 332 205.32 332 206 332 C206 331.34 206 330.68 206 330 C206.66 330 207.32 330 208 330 C208 329.34 208 328.68 208 328 C208.66 328 209.32 328 210 328 C210 327.34 210 326.68 210 326 C211.875 323.875 211.875 323.875 214 322 C214.66 322 215.32 322 216 322 C216 321.34 216 320.68 216 320 C216.66 320 217.32 320 218 320 C218 319.34 218 318.68 218 318 C218.66 318 219.32 318 220 318 C220 317.34 220 316.68 220 316 C220.66 316 221.32 316 222 316 C222 315.34 222 314.68 222 314 C222.66 314 223.32 314 224 314 C224 313.34 224 312.68 224 312 C224.66 312 225.32 312 226 312 C226 311.34 226 310.68 226 310 C227.875 307.875 227.875 307.875 230 306 C230.66 306 231.32 306 232 306 C232 305.34 232 304.68 232 304 C232.66 304 233.32 304 234 304 C234 303.34 234 302.68 234 302 C234.66 302 235.32 302 236 302 C236 301.34 236 300.68 236 300 C236.66 300 237.32 300 238 300 C238 299.34 238 298.68 238 298 C238.66 298 239.32 298 240 298 C240 297.34 240 296.68 240 296 C241.65002828 294.64613064 243.3174387 293.31321858 245 292 C245.33 291.34 245.66 290.68 246 290 C246.66 290 247.32 290 248 290 C248 289.34 248 288.68 248 288 C249.875 285.875 249.875 285.875 252 284 C252.66 284 253.32 284 254 284 C254 283.34 254 282.68 254 282 C254.66 282 255.32 282 256 282 C256.66 280.68 257.32 279.36 258 278 C258.66 278 259.32 278 260 278 C260 277.34 260 276.68 260 276 C260.66 276 261.32 276 262 276 C262 275.34 262 274.68 262 274 C262.66 274 263.32 274 264 274 C263.44649229 270.67895374 262.85908781 267.83755508 261 265 C260.39285156 264.70480469 259.78570313 264.40960938 259.16015625 264.10546875 C256.73475294 262.86425874 255.16408225 261.43044193 253.25 259.5 C252.63640625 258.8915625 252.0228125 258.283125 251.390625 257.65625 C250 256 250 256 250 254 C249.13375 253.62875 249.13375 253.62875 248.25 253.25 C245.67060021 251.81700012 243.93878408 250.21575324 242 248 C242 247.34 242 246.68 242 246 C240.68 245.34 239.36 244.68 238 244 C238 243.34 238 242.68 238 242 C237.45633789 241.78085937 236.91267578 241.56171875 236.35253906 241.3359375 C233.22332793 239.55895085 230.87314601 237.15895025 228.359375 234.625 C227.83232971 234.09986816 227.30528442 233.57473633 226.76226807 233.03369141 C225.65383072 231.92661117 224.54789954 230.8170167 223.44433594 229.70507812 C221.74893699 227.99893025 220.0430839 226.30375953 218.3359375 224.609375 C217.25977442 223.53189108 216.18423149 222.45378733 215.109375 221.375 C214.59695251 220.86662598 214.08453003 220.35825195 213.55657959 219.83447266 C210 216.22994091 210 216.22994091 210 214 C208.68 213.34 207.36 212.68 206 212 C206 211.34 206 210.68 206 210 C205.1646875 209.6596875 205.1646875 209.6596875 204.3125 209.3125 C201.33840412 207.62449964 199.27991135 205.53323483 197 203 C197 202.34 197 201.68 197 201 C195.68 200.34 194.36 199.68 193 199 C193 198.34 193 197.68 193 197 C192.42765625 196.7525 191.8553125 196.505 191.265625 196.25 C188.64989389 194.80683801 186.85226544 193.11783778 184.75 191 C183.69039063 189.948125 183.69039063 189.948125 182.609375 188.875 C181 187 181 187 181 185 C180.01 184.67 179.02 184.34 178 184 C178 183.34 178 182.68 178 182 C177.19127441 181.67805664 177.19127441 181.67805664 176.36621094 181.34960938 C173.14930168 179.51478949 170.72860745 177.01414382 168.140625 174.40625 C167.59138367 173.85892212 167.04214233 173.31159424 166.47625732 172.74768066 C165.32074141 171.5935222 164.16773315 170.43684833 163.01708984 169.27783203 C161.249265 167.49926054 159.4709787 165.73165237 157.69140625 163.96484375 C156.56967029 162.84178692 155.44855449 161.71811024 154.328125 160.59375 C153.79382874 160.0635022 153.25953247 159.53325439 152.70904541 158.98693848 C149 155.22993854 149 155.22993854 149 153 C148.41573242 152.74025391 147.83146484 152.48050781 147.22949219 152.21289062 C144.84438836 150.915344 143.24809363 149.50658878 141.328125 147.59375 C140.66425781 146.93246094 140.00039063 146.27117187 139.31640625 145.58984375 C138.63449219 144.90019531 137.95257813 144.21054687 137.25 143.5 C136.55261719 142.81035156 135.85523438 142.12070312 135.13671875 141.41015625 C134.47800781 140.74886719 133.81929687 140.08757812 133.140625 139.40625 C132.53766602 138.80103516 131.93470703 138.19582031 131.31347656 137.57226562 C130 136 130 136 130 134 C128.68 133.34 127.36 132.68 126 132 C126 131.34 126 130.68 126 130 C124.68 129.34 123.36 128.68 122 128 C122 127.34 122 126.68 122 126 C121.38125 125.7525 120.7625 125.505 120.125 125.25 C117.64931313 123.79371361 117.04874998 122.62187494 116 120 C115.34 120 114.68 120 114 120 C114 119.34 114 118.68 114 118 C113.34 118 112.68 118 112 118 C112 117.34 112 116.68 112 116 C111.34 116 110.68 116 110 116 C110 115.34 110 114.68 110 114 C109.34 114 108.68 114 108 114 C108 113.34 108 112.68 108 112 C107.38125 111.7525 106.7625 111.505 106.125 111.25 C103.64931313 109.79371361 103.04874998 108.62187494 102 106 C101.34 106 100.68 106 100 106 C100 105.34 100 104.68 100 104 C99.34 104 98.68 104 98 104 C96.375 102.625 96.375 102.625 95 101 C95 100.34 95 99.68 95 99 C94.34 99 93.68 99 93 99 C93 98.34 93 97.68 93 97 C92.01 96.67 91.02 96.34 90 96 C90 95.34 90 94.68 90 94 C89.01 93.67 88.02 93.34 87 93 C87 92.34 87 91.68 87 91 C86.01 90.67 85.02 90.34 84 90 C84 89.34 84 88.68 84 88 C83.34 88 82.68 88 82 88 C82 87.34 82 86.68 82 86 C81.01 85.67 80.02 85.34 79 85 C79 84.34 79 83.68 79 83 C78.34 83 77.68 83 77 83 C77 82.34 77 81.68 77 81 C76.01 80.67 75.02 80.34 74 80 C74 79.34 74 78.68 74 78 C73.34 78 72.68 78 72 78 C72 77.34 72 76.68 72 76 C71.01 75.67 70.02 75.34 69 75 C69 74.34 69 73.68 69 73 C68.01 72.67 67.02 72.34 66 72 C66 71.34 66 70.68 66 70 C65.34 70 64.68 70 64 70 C64 69.34 64 68.68 64 68 C63.34 68 62.68 68 62 68 C59.875 66.125 59.875 66.125 58 64 C58 63.34 58 62.68 58 62 C57.34 62 56.68 62 56 62 C56 61.34 56 60.68 56 60 C55.34 60 54.68 60 54 60 C54 59.34 54 58.68 54 58 C53.34 58 52.68 58 52 58 C52 57.34 52 56.68 52 56 C51.34 56 50.68 56 50 56 C50 55.34 50 54.68 50 54 C49.34 54 48.68 54 48 54 C48 53.34 48 52.68 48 52 C47.34 52 46.68 52 46 52 C44.375 50.625 44.375 50.625 43 49 C43 48.34 43 47.68 43 47 C42.34 47 41.68 47 41 47 C41 46.34 41 45.68 41 45 C39.515 44.505 39.515 44.505 38 44 C38 43.34 38 42.68 38 42 C37.34 42 36.68 42 36 42 C36 41.34 36 40.68 36 40 C35.34 40 34.68 40 34 40 C34 39.34 34 38.68 34 38 C33.34 38 32.68 38 32 38 C32 37.34 32 36.68 32 36 C31.34 36 30.68 36 30 36 C28.64613064 34.34997172 27.31321858 32.6825613 26 31 C25.34 30.67 24.68 30.34 24 30 C24 29.34 24 28.68 24 28 C23.34 28 22.68 28 22 28 C22 27.34 22 26.68 22 26 C21.34 26 20.68 26 20 26 C20 25.34 20 24.68 20 24 C19.34 24 18.68 24 18 24 C16.375 22.625 16.375 22.625 15 21 C15 20.34 15 19.68 15 19 C14.34 19 13.68 19 13 19 C13 18.34 13 17.68 13 17 C11.515 16.505 11.515 16.505 10 16 C10 15.34 10 14.68 10 14 C8.68 13.34 7.36 12.68 6 12 C6 11.34 6 10.68 6 10 C5.443125 9.773125 4.88625 9.54625 4.3125 9.3125 C1.36753316 7.64103234 -0.68156544 5.44723648 -3 3 C-9.18033671 8.19602453 -9.18033671 8.19602453 -14.625 14.125 C-17.04775015 17.05780282 -19.60149632 19.32121006 -22.546875 21.703125 C-24.13287611 22.95780703 -24.13287611 22.95780703 -25 25 C-25.66 25 -26.32 25 -27 25 C-27 25.66 -27 26.32 -27 27 C-27.66 27 -28.32 27 -29 27 C-29 27.66 -29 28.32 -29 29 C-30.375 30.625 -30.375 30.625 -32 32 C-32.66 32 -33.32 32 -34 32 C-34 32.66 -34 33.32 -34 34 C-35.49609375 35.4375 -35.49609375 35.4375 -37.4375 37 C-40.15188238 39.14525044 -40.15188238 39.14525044 -42 42 C-42.66 42 -43.32 42 -44 42 C-44 42.66 -44 43.32 -44 44 C-45.66666667 45.33333333 -47.33333333 46.66666667 -49 48 C-50.69088222 49.97956942 -52.35830472 51.97945196 -54 54 C-56.1875 56.375 -56.1875 56.375 -58 58 C-58.66 58 -59.32 58 -60 58 C-60 58.66 -60 59.32 -60 60 C-61.375 61.625 -61.375 61.625 -63 63 C-63.66 63 -64.32 63 -65 63 C-65.66 64.32 -66.32 65.64 -67 67 C-58.30762697 77.12851837 -48.71419703 86.39639544 -39.26147461 95.80444336 C-37.35845378 97.7022651 -35.45564598 99.60029801 -33.5531311 101.49862671 C-29.4720804 105.5700178 -25.38935404 109.63972202 -21.30561638 113.70841789 C-14.85316241 120.13739764 -8.40598213 126.57165194 -1.95960999 133.00672913 C0.24974936 135.21208846 2.45914305 137.41741338 4.66854763 139.62272739 C5.22044864 140.17360918 5.77234966 140.72449097 6.34097495 141.29206614 C12.60558371 147.54496133 18.87127901 153.79676726 25.13745117 160.0480957 C25.70955031 160.61884241 26.28164945 161.18958911 26.87108492 161.77763117 C36.16976062 171.05406202 45.47224537 180.32666602 54.77566332 189.59834044 C64.33679065 199.12712366 73.89218937 208.66162608 83.44267267 218.20107752 C89.33048498 224.08165818 95.22300084 229.95744608 101.12160151 235.82720561 C105.15490406 239.84156724 109.18279114 243.86130858 113.20638848 247.88539755 C115.5296853 250.20863112 117.85620642 252.52846949 120.18766975 254.84351158 C122.70988233 257.34868968 125.22281484 259.86281427 127.73353577 262.37950134 C128.47834971 263.11489464 129.22316365 263.85028794 129.99054772 264.60796589 C130.9906653 265.61611814 130.9906653 265.61611814 132.01098728 266.64463711 C132.59239682 267.22436541 133.17380635 267.80409371 133.77283436 268.40138954 C135 270 135 270 135 273 C134.34 273 133.68 273 133 273 C133 273.66 133 274.32 133 275 C132.34 275 131.68 275 131 275 C130.72893433 275.59572815 130.45786865 276.1914563 130.17858887 276.80523682 C129.01596143 278.97027669 127.86848412 280.3848637 126.14257812 282.11621094 C125.56858276 282.69651062 124.9945874 283.2768103 124.40319824 283.87469482 C123.78545532 284.48838928 123.1677124 285.10208374 122.53125 285.734375 C121.89513794 286.37240051 121.25902588 287.01042603 120.6036377 287.66778564 C119.26116613 289.01161574 117.91617539 290.35293329 116.56884766 291.69189453 C114.50057835 293.74942465 112.44322672 295.81744049 110.38671875 297.88671875 C109.08137029 299.19074625 107.7754019 300.49415356 106.46875 301.796875 C105.85100708 302.41866638 105.23326416 303.04045776 104.59680176 303.68109131 C100.22993073 308 100.22993073 308 98 308 C97.34 309.32 96.68 310.64 96 312 C95.34 312 94.68 312 94 312 C93.34 313.32 92.68 314.64 92 316 C91.34 316 90.68 316 90 316 C89.34 317.32 88.68 318.64 88 320 C87.34 320 86.68 320 86 320 C86 320.66 86 321.32 86 322 C85.34 322 84.68 322 84 322 C84 322.66 84 323.32 84 324 C83.34 324 82.68 324 82 324 C82 324.66 82 325.32 82 326 C81.34 326 80.68 326 80 326 C80 326.66 80 327.32 80 328 C79.34 328 78.68 328 78 328 C78 328.66 78 329.32 78 330 C77.34 330 76.68 330 76 330 C75.7525 330.61875 75.505 331.2375 75.25 331.875 C73.77229238 334.38710296 72.56044823 334.76107344 70 336 C69.67 336.99 69.34 337.98 69 339 C68.34 339 67.68 339 67 339 C66.67 339.99 66.34 340.98 66 342 C65.34 342 64.68 342 64 342 C64 342.66 64 343.32 64 344 C63.34 344 62.68 344 62 344 C61.34 345.32 60.68 346.64 60 348 C59.34 348 58.68 348 58 348 C57.62875 348.86625 57.62875 348.86625 57.25 349.75 C55.81700012 352.32939979 54.21575324 354.06121592 52 356 C51.34 356 50.68 356 50 356 C49.72704102 356.59762146 49.45408203 357.19524292 49.17285156 357.81097412 C48.03300132 359.9384059 46.92785057 361.32540472 45.234375 363.02441406 C44.68040039 363.58469299 44.12642578 364.14497192 43.55566406 364.722229 C42.95979492 365.31404968 42.36392578 365.90587036 41.75 366.515625 C41.13608398 367.13145447 40.52216797 367.74728394 39.88964844 368.3817749 C38.59425517 369.67852646 37.29634356 370.97276657 35.99609375 372.26464844 C34.00024932 374.24975202 32.01533274 376.24533591 30.03125 378.2421875 C28.77147445 379.50064211 27.51107899 380.75847654 26.25 382.015625 C25.35619629 382.9155014 25.35619629 382.9155014 24.44433594 383.83355713 C20.22993247 388 20.22993247 388 18 388 C17.34 389.32 16.68 390.64 16 392 C15.34 392 14.68 392 14 392 C13.72704102 392.59762146 13.45408203 393.19524292 13.17285156 393.81097412 C12.03300132 395.9384059 10.92785057 397.32540472 9.234375 399.02441406 C8.68040039 399.58469299 8.12642578 400.14497192 7.55566406 400.722229 C6.95979492 401.31404968 6.36392578 401.90587036 5.75 402.515625 C5.13608398 403.13145447 4.52216797 403.74728394 3.88964844 404.3817749 C2.59425517 405.67852646 1.29634356 406.97276657 -0.00390625 408.26464844 C-1.99975068 410.24975202 -3.98466726 412.24533591 -5.96875 414.2421875 C-7.22852555 415.50064211 -8.48892101 416.75847654 -9.75 418.015625 C-10.64380371 418.9155014 -10.64380371 418.9155014 -11.55566406 419.83355713 C-15.77006753 424 -15.77006753 424 -18 424 C-18.21914063 424.54366211 -18.43828125 425.08732422 -18.6640625 425.64746094 C-20.44104915 428.77667207 -22.84104975 431.12685399 -25.375 433.640625 C-25.90013184 434.16767029 -26.42526367 434.69471558 -26.96630859 435.23773193 C-28.07338883 436.34616928 -29.1829833 437.45210046 -30.29492188 438.55566406 C-32.00106975 440.25106301 -33.69624047 441.9569161 -35.390625 443.6640625 C-36.46810892 444.74022558 -37.54621267 445.81576851 -38.625 446.890625 C-39.13337402 447.40304749 -39.64174805 447.91546997 -40.16552734 448.44342041 C-43.77005909 452 -43.77005909 452 -46 452 C-46.99 453.98 -46.99 453.98 -48 456 C-48.66 456 -49.32 456 -50 456 C-50.99 457.98 -50.99 457.98 -52 460 C-52.66 460 -53.32 460 -54 460 C-54 460.66 -54 461.32 -54 462 C-54.66 462 -55.32 462 -56 462 C-56 462.66 -56 463.32 -56 464 C-56.66 464 -57.32 464 -58 464 C-58 464.66 -58 465.32 -58 466 C-58.66 466 -59.32 466 -60 466 C-60 466.66 -60 467.32 -60 468 C-60.66 468 -61.32 468 -62 468 C-62.99 469.98 -62.99 469.98 -64 472 C-64.66 472 -65.32 472 -66 472 C-66.33 472.99 -66.66 473.98 -67 475 C-67.66 475 -68.32 475 -69 475 C-67.93987294 476.23121385 -66.87675995 477.45985685 -65.8125 478.6875 C-65.22082031 479.37199219 -64.62914062 480.05648438 -64.01953125 480.76171875 C-60.11810522 485.08573638 -55.88881798 489.10541577 -51.75073242 493.20166016 C-46.7076207 498.19598829 -41.67195753 503.19775433 -36.64062023 508.20394325 C-33.6026268 511.2262062 -30.56185634 514.24556786 -27.51489258 517.25878906 C-24.55891448 520.18225422 -21.61025257 523.11291519 -18.66658974 526.04877853 C-17.54442416 527.16539556 -16.41961884 528.27936611 -15.29216576 529.39064407 C-13.72186268 530.93927404 -12.16109516 532.49693333 -10.60229492 534.05712891 C-9.71136642 534.94139557 -8.82043793 535.82566223 -7.9025116 536.73672485 C-6 539 -6 539 -6 542 C-8 542 -8 542 -9.875 540.3125 C-12 538 -12 538 -14.125 535.3125 C-15.79090954 532.93242212 -15.79090954 532.93242212 -18 532 C-18 531.34 -18 530.68 -18 530 C-18.66 530 -19.32 530 -20 530 C-20 529.34 -20 528.68 -20 528 C-20.7425 527.7525 -21.485 527.505 -22.25 527.25 C-25.23023087 525.89534961 -26.89919252 524.4898459 -29 522 C-29 521.34 -29 520.68 -29 520 C-29.60070312 519.73832031 -30.20140625 519.47664062 -30.8203125 519.20703125 C-33.13404277 517.92577201 -34.2545833 516.75192918 -35.875 514.6875 C-37.86584885 512.24579733 -39.81949733 510.23755242 -42.3125 508.3125 C-45.16867488 505.85486115 -45.1866661 505.36952614 -46 502 C-47.65204456 501.29788106 -49.31923769 500.63028587 -51 500 C-51.33 499.01 -51.66 498.02 -52 497 C-52.7425 496.566875 -53.485 496.13375 -54.25 495.6875 C-56.7574843 494.14881645 -57.86062447 493.11522227 -59.625 490.875 C-61.74604217 487.79020875 -61.74604217 487.79020875 -65 487 C-66.3515625 485.29296875 -66.3515625 485.29296875 -67.625 483.1875 C-68.05039063 482.50042969 -68.47578125 481.81335938 -68.9140625 481.10546875 C-69.99961363 479.00074911 -70.71143718 477.35107743 -71 475 C-69.1875 471.75 -69.1875 471.75 -67 469 C-66.34 469 -65.68 469 -65 469 C-65 468.34 -65 467.68 -65 467 C-64.34 467 -63.68 467 -63 467 C-63 466.34 -63 465.68 -63 465 C-62.02246356 463.97803008 -61.0194119 462.98020375 -60 462 C-59.34 461.01 -58.68 460.02 -58 459 C-56.51116717 457.77009462 -55.02109104 456.54151975 -53.515625 455.33203125 C-51.77966965 453.88683876 -51.77966965 453.88683876 -49.875 451.3125 C-47.96728905 448.9596565 -46.67694137 448.2492393 -44 447 C-43.34 446.01 -42.68 445.02 -42 444 C-40.33333333 442.33333333 -38.66666667 440.66666667 -37 439 C-36.195625 438.01 -35.39125 437.02 -34.5625 436 C-31.8746195 432.85321308 -29.29375225 430.48861281 -26 428 C-25.34 428 -24.68 428 -24 428 C-24 427.01 -24 426.02 -24 425 C-22.390625 423.31640625 -22.390625 423.31640625 -20.25 421.5625 C-17.99276984 419.67485154 -15.83238503 417.83238503 -13.75 415.75 C-12 414 -12 414 -9.875 412.4375 C-7.74152736 410.96201629 -7.74152736 410.96201629 -6 408 C-4.3545622 406.31237149 -2.68711423 404.6459651 -1 403 C-0.443125 402.4225 0.11375 401.845 0.6875 401.25 C2 400 2 400 4 399 C4.66 398.01 5.32 397.02 6 396 C6.98074379 394.75541481 7.98183461 393.52666223 9 392.3125 C9.7734375 391.37857422 9.7734375 391.37857422 10.5625 390.42578125 C12 389 12 389 14 389 C14 388.34 14 387.68 14 387 C15.47695491 385.71569138 16.95806138 384.43419292 18.4921875 383.21875 C20.13813095 381.93215329 20.13813095 381.93215329 22 380 C22.66 379.67 23.32 379.34 24 379 C24.66 378.01 25.32 377.02 26 376 C26.93814828 374.79648978 27.89785417 373.60956871 28.875 372.4375 C29.36742187 371.83808594 29.85984375 371.23867188 30.3671875 370.62109375 C32 369 32 369 34.0703125 367.97265625 C36.33683108 367.02919289 36.33683108 367.02919289 38 364 C39.64429829 362.31126121 41.31384218 360.64694485 43 359 C43.845625 358.154375 44.69125 357.30875 45.5625 356.4375 C47.05211975 354.94788025 48.55014198 353.46652898 50.0625 352 C52.12017431 349.95978603 52.12017431 349.95978603 54.0625 347.25 C54.701875 346.5075 55.34125 345.765 56 345 C56.99 345 57.98 345 59 345 C59 344.34 59 343.68 59 343 C59.66 343 60.32 343 61 343 C61.33 342.01 61.66 341.02 62 340 C62.969375 339.195625 63.93875 338.39125 64.9375 337.5625 C67.79974143 335.16756329 68.47323943 334.15530517 70 331 C71.63604196 329.62926214 73.30678061 328.29944744 75 327 C78.44161 323.73488282 81.51953456 320.25345163 84.5859375 316.64453125 C89.21420644 311.26193119 89.21420644 311.26193119 93 310 C94.01187895 308.34051852 95.0126546 306.67419438 96 305 C96.66 305 97.32 305 98 305 C98.33 304.34 98.66 303.68 99 303 C100.66666667 301.33333333 102.33333333 299.66666667 104 298 C104.66 297.01 105.32 296.02 106 295 C106.99 294.67 107.98 294.34 109 294 C110.51199628 292.2072358 110.51199628 292.2072358 112 290 C115.62886598 285.12371134 115.62886598 285.12371134 119 284 C120.3540932 282.01399663 121.68457624 280.01182457 123 278 C123.928125 277.154375 124.85625 276.30875 125.8125 275.4375 C126.534375 274.633125 127.25625 273.82875 128 273 C127.72626709 269.07225099 126.51128369 266.97407789 123.875 264.125 C123.2459375 263.44050781 122.616875 262.75601562 121.96875 262.05078125 C119.02540779 258.98479978 116.03805389 255.97200924 113 253 C108 248 108 248 106.20703125 246.171875 C105.58183594 245.53765625 104.95664062 244.9034375 104.3125 244.25 C103.73113281 243.65703125 103.14976562 243.0640625 102.55078125 242.453125 C101.04486026 240.90358196 101.04486026 240.90358196 99 240 C99 239.34 99 238.68 99 238 C98.01 237.67 97.02 237.34 96 237 C94.5703125 235.51171875 94.5703125 235.51171875 93.125 233.6875 C90.66758099 230.68944881 88.03908527 228.41339124 85 226 C85 225.34 85 224.68 85 224 C84.34 224 83.68 224 83 224 C81.63823078 222.35648543 80.31037934 220.68477344 79 219 C75.66378977 215.48345408 72.11911505 212.37344265 68.35546875 209.33203125 C67.90816406 208.89246094 67.46085938 208.45289063 67 208 C67 207.34 67 206.68 67 206 C66.34 206 65.68 206 65 206 C63.51953125 204.49609375 63.51953125 204.49609375 61.8125 202.4375 C57.61193751 197.50030442 53.41748202 192.61165468 48 189 C46.3125 187.5 46.3125 187.5 45 186 C45 185.34 45 184.68 45 184 C44.11683105 183.60361328 44.11683105 183.60361328 43.21582031 183.19921875 C40.91927416 181.95631056 39.39166834 180.64993519 37.546875 178.8125 C36.928125 178.19632813 36.309375 177.58015625 35.671875 176.9453125 C35.03765625 176.30335938 34.4034375 175.66140625 33.75 175 C33.1003125 174.35804688 32.450625 173.71609375 31.78125 173.0546875 C31.16765625 172.43851563 30.5540625 171.82234375 29.921875 171.1875 C29.36081055 170.62417969 28.79974609 170.06085938 28.22167969 169.48046875 C27 168 27 168 27 166 C26.34 166 25.68 166 25 166 C25 165.34 25 164.68 25 164 C24.13375 163.62875 24.13375 163.62875 23.25 163.25 C19.51045033 161.1724724 17.04915678 158.08265653 14.375 154.8125 C12.30830705 151.98963873 12.30830705 151.98963873 10 151 C10 150.34 10 149.68 10 149 C9.360625 148.731875 8.72125 148.46375 8.0625 148.1875 C6 147 6 147 5 144 C4.195625 143.690625 3.39125 143.38125 2.5625 143.0625 C-0.56199933 141.76697589 -0.61078746 140.95207666 -2 138 C-3.63604196 136.62926214 -5.30678061 135.29944744 -7 134 C-8.68662458 132.35353315 -10.35511706 130.68816933 -12 129 C-12.598125 128.443125 -13.19625 127.88625 -13.8125 127.3125 C-15 126 -15 126 -15 124 C-15.86625 123.62875 -15.86625 123.62875 -16.75 123.25 C-19.32939979 121.81700012 -21.06121592 120.21575324 -23 118 C-23 117.34 -23 116.68 -23 116 C-23.66 116 -24.32 116 -25 116 C-27.125 114.125 -27.125 114.125 -29 112 C-29 111.34 -29 110.68 -29 110 C-29.66 110 -30.32 110 -31 110 C-31 109.34 -31 108.68 -31 108 C-31.66 108 -32.32 108 -33 108 C-33 107.34 -33 106.68 -33 106 C-33.66 106 -34.32 106 -35 106 C-37.125 104.125 -37.125 104.125 -39 102 C-39 101.34 -39 100.68 -39 100 C-39.66 100 -40.32 100 -41 100 C-44.02411657 97.23509342 -46.65694936 94.24133112 -49.3125 91.125 C-52.36324284 87.5946644 -55.6525815 84.55840626 -59.19921875 81.53515625 C-61.25230462 79.78491168 -63.20626569 78.0179511 -65 76 C-65 75.34 -65 74.68 -65 74 C-65.61875 73.773125 -66.2375 73.54625 -66.875 73.3125 C-69 72 -69 72 -70.4375 69.75 C-71.20677176 65.98911583 -69.93896318 64.2067468 -68 61 C-67.34 61 -66.68 61 -66 61 C-65.34 59.68 -64.68 58.36 -64 57 C-63.34 57 -62.68 57 -62 57 C-62 56.34 -62 55.68 -62 55 C-61.34 55 -60.68 55 -60 55 C-60 54.34 -60 53.68 -60 53 C-59.01 52.34 -58.02 51.68 -57 51 C-56.34 50.01 -55.68 49.02 -55 48 C-53.515 47.505 -53.515 47.505 -52 47 C-52 46.34 -52 45.68 -52 45 C-49.49416218 42.27305884 -46.87466612 39.89816622 -44 37.5625 C-40.87234285 34.89095952 -38.56164701 32.20205876 -36 29 C-34 27 -34 27 -32 26.125 C-29.86233415 25.17386944 -29.86233415 25.17386944 -29.09375 23.1171875 C-27.54852353 20.12607055 -25.27369214 18.6032176 -22.65625 16.5625 C-20.90249548 15.10013111 -20.90249548 15.10013111 -20.09765625 13.0703125 C-18.58430024 10.21593996 -16.50023536 8.81456662 -13.9375 6.875 C-10.4287459 4.39068378 -10.4287459 4.39068378 -8 1 C-4.82132212 -0.05955929 -3.29749893 -0.5246021 0 0 Z " fill="#BDFAFA" transform="translate(283,239)"/>
<path d="M0 0 C0.99 0.66 1.98 1.32 3 2 C3.66 2 4.32 2 5 2 C5.33 1.34 5.66 0.68 6 0 C6 0.66 6 1.32 6 2 C7.546875 1.7215625 7.546875 1.7215625 9.125 1.4375 C12.76148442 1.02692918 15.45437009 1.221691 19 2 C19.33 1.34 19.66 0.68 20 0 C20 0.66 20 1.32 20 2 C21.2375 1.62875 22.475 1.2575 23.75 0.875 C27.67157143 -0.12964286 27.67157143 -0.12964286 30.375 0.9375 C31.179375 1.4634375 31.179375 1.4634375 32 2 C32.66 1.67 33.32 1.34 34 1 C70 1 70 1 73 2 C74.66701048 1.66839039 76.33360018 1.33466478 78 1 C80.71840075 0.93162976 83.40848183 0.90533722 86.125 0.9375 C86.84042969 0.94201172 87.55585937 0.94652344 88.29296875 0.95117188 C90.19534142 0.9636173 92.09767647 0.98151089 94 1 C94.99 1 95.98 1 97 1 C97.99 1.33 98.98 1.66 100 2 C100.70125 1.855625 101.4025 1.71125 102.125 1.5625 C106.09597281 0.78557054 109.96772078 0.93204024 114 1 C114.99 1 115.98 1 117 1 C194.28225806 1 194.28225806 1 198 2 C199.375 4 199.375 4 200 6 C200.66 6.33 201.32 6.66 202 7 C202.92781744 9.36171711 203.04791749 10.77015455 202.52761841 13.26586914 C201.95362002 16.24034215 201.87292307 18.96737343 201.87060547 21.99609375 C201.86745331 23.18082275 201.86430115 24.36555176 201.86105347 25.58618164 C201.8630777 26.8571167 201.86510193 28.12805176 201.8671875 29.4375 C201.86623077 30.75032959 201.86527405 32.06315918 201.86428833 33.41577148 C201.86281718 36.1896279 201.86494716 38.96345203 201.86962891 41.73730469 C201.87532585 45.28466869 201.87204373 48.83195701 201.86605644 52.37931824 C201.86156478 55.77371815 201.86471383 59.16809794 201.8671875 62.5625 C201.86415115 64.46890259 201.86415115 64.46890259 201.86105347 66.41381836 C201.86420563 67.59854736 201.86735779 68.78327637 201.87060547 70.00390625 C201.87140106 71.04361572 201.87219666 72.0833252 201.87301636 73.15454102 C201.99453952 75.8776411 202.43231178 78.34055711 203 81 C202.9140625 83.46484375 202.9140625 83.46484375 202.625 85.9375 C202.47611328 87.23107422 202.47611328 87.23107422 202.32421875 88.55078125 C201.94964079 91.38042441 201.51711385 94.19281055 201 97 C200.01 97 199.02 97 198 97 C197.67 66.97 197.34 36.94 197 6 C92.72 5.67 -11.56 5.34 -119 5 C-119.33 4.34 -119.66 3.68 -120 3 C-115.78783447 1.33472526 -113.37346389 0.93618446 -109 2 C-108.01 1.67 -107.02 1.34 -106 1 C-102 1 -102 1 -99.5 1.5625 C-96.88267263 2.02053229 -95.50315479 1.75094644 -93 1 C-90 1 -90 1 -87.625 1.5625 C-84.69505187 2.05082469 -82.8997257 1.59312571 -80 1 C-71.77265501 0.6136725 -71.77265501 0.6136725 -69 2 C-67.5459375 1.7525 -67.5459375 1.7525 -66.0625 1.5 C-63 1 -63 1 -60 2 C-58.33178677 1.67449498 -56.66500443 1.34153937 -55 1 C-54.01 1.495 -54.01 1.495 -53 2 C-52.01 1.67 -51.02 1.34 -50 1 C-48.66666667 1.33333333 -47.33333333 1.66666667 -46 2 C-45.01 1.67 -44.02 1.34 -43 1 C-42.29875 1.144375 -41.5975 1.28875 -40.875 1.4375 C-36.90402719 2.21442946 -33.03227922 2.06795976 -29 2 C-28.01 2 -27.02 2 -26 2 C-25.01 1.835 -24.02 1.67 -23 1.5 C-19.47346266 0.91224378 -17.40944287 0.86351904 -14 2 C-13.01 1.67 -12.02 1.34 -11 1 C-10.01 1.495 -10.01 1.495 -9 2 C-4.34781145 1.55631778 -4.34781145 1.55631778 0 0 Z " fill="#BDFBFB" transform="translate(649,681)"/>
<path d="M0 0 C40.31583366 -0.04574939 80.63166394 -0.08100494 120.94751836 -0.10213066 C125.70410734 -0.10463216 130.46069626 -0.10722079 135.21728516 -0.10986328 C136.63774862 -0.11065021 136.63774862 -0.11065021 138.08690831 -0.11145304 C153.43251453 -0.12016239 168.77810581 -0.13593527 184.12370315 -0.15430559 C199.86253425 -0.17298992 215.6013575 -0.18411361 231.34019923 -0.18817699 C241.05668086 -0.1909251 250.77312026 -0.19961363 260.48958889 -0.21583293 C267.14700342 -0.22638171 273.80439602 -0.22960542 280.46181831 -0.22700275 C284.3062987 -0.22571817 288.15070516 -0.22772652 291.9951725 -0.23841095 C296.15830917 -0.24989687 300.32128721 -0.24599033 304.48443604 -0.24050903 C305.70621528 -0.24633472 306.92799452 -0.2521604 308.18679738 -0.25816262 C309.85509827 -0.25218947 309.85509827 -0.25218947 311.5571022 -0.24609566 C312.51855408 -0.2468551 313.48000596 -0.24761454 314.47059274 -0.24839699 C317.10236166 0.01005229 318.74203929 0.66055804 321 2 C313.49261084 4.1270936 313.49261084 4.1270936 311.046875 3.49609375 C308.98823559 2.83982687 308.98823559 2.83982687 306.85864258 3.46289062 C303.2962926 4.13221934 299.82354358 4.12406219 296.21484375 4.09765625 C295.10768761 4.09553383 295.10768761 4.09553383 293.97816467 4.09336853 C291.63123421 4.08779881 289.28440125 4.07526668 286.9375 4.0625 C285.35612119 4.05747975 283.77474086 4.05291776 282.19335938 4.04882812 C279.29416956 4.04067932 276.39501658 4.02995632 273.49584961 4.01586914 C270.99725322 4.00452695 268.49862214 4 266 4 C265.34 3.67 264.68 3.34 264 3 C261.66574212 3.3267961 259.33257494 3.66140041 257 4 C253.39412505 4.18439133 249.92297374 4.19778009 246.375 3.4375 C243.96978716 2.84927138 243.96978716 2.84927138 241.44213867 3.46655273 C237.11420507 4.13727654 232.92244712 4.12400165 228.55078125 4.09765625 C227.65634811 4.0962413 226.76191498 4.09482635 225.84037781 4.09336853 C222.99771702 4.08779812 220.1551367 4.07526021 217.3125 4.0625 C215.38997511 4.05748035 213.46744897 4.05291826 211.54492188 4.04882812 C207.32222743 4.03902159 203.09957407 4.02483089 198.87690735 4.00672913 C195.62888558 3.99508425 192.38106114 4.00460238 189.13305664 4.01586914 C183.63241122 4.03384098 178.13176959 4.04541294 172.63110352 4.05493164 C170.25382039 4.05997343 167.87654038 4.06680667 165.49926758 4.07543945 C162.07372273 4.08755392 158.64821859 4.09323795 155.22265625 4.09765625 C153.62720726 4.10539818 153.62720726 4.10539818 151.99952698 4.11329651 C151.00847458 4.11337204 150.01742218 4.11344757 148.99633789 4.11352539 C147.69086754 4.11685631 147.69086754 4.11685631 146.35902405 4.12025452 C144.0993813 4.0050661 142.18334204 3.55124206 140 3 C138.32577014 3.29299023 136.65821773 3.62690101 135 4 C125 4 125 4 123.125 3.4375 C120.98151699 2.84969138 120.98151699 2.84969138 118.7658844 3.46456909 C115.65672852 4.06645186 112.78784645 4.1271323 109.62084961 4.12939453 C108.35280991 4.13254669 107.0847702 4.13569885 105.77830505 4.13894653 C104.40298426 4.13715672 103.02766379 4.13510576 101.65234375 4.1328125 C100.23417647 4.13348661 98.8160093 4.13445754 97.39784241 4.13571167 C94.4314768 4.1371831 91.46514138 4.1350516 88.4987793 4.13037109 C84.70021384 4.12466892 80.90171897 4.1279594 77.10315609 4.13394356 C74.17692026 4.13755969 71.25070113 4.13640583 68.3244648 4.13381577 C66.92385411 4.13314968 65.52324189 4.13396378 64.12263298 4.13629532 C62.16500758 4.13883962 60.20737684 4.13427302 58.24975586 4.12939453 C56.58027138 4.12820114 56.58027138 4.12820114 54.87705994 4.12698364 C52.38866686 4.01715443 50.38745979 3.62266977 48 3 C45.31850007 3.38567131 45.31850007 3.38567131 43 4 C43 3.34 43 2.68 43 2 C41.35 2.66 39.7 3.32 38 4 C38 3.34 38 2.68 38 2 C36.39125 2.495 36.39125 2.495 34.75 3 C26.22474353 5.27340172 10.46303733 5.82101244 2 3 C2 2.34 2 1.68 2 1 C1.34 0.67 0.68 0.34 0 0 Z " fill="#C2FAFA" transform="translate(528,778)"/>
<path d="M0 0 C0.66 0 1.32 0 2 0 C2 30.03 2 60.06 2 91 C1.01 90.67 0.02 90.34 -1 90 C-1.94183842 82.85671211 -2.14605895 75.86833436 -2.1328125 68.66796875 C-2.13376923 67.51379959 -2.13472595 66.35963043 -2.13571167 65.17048645 C-2.1363888 62.74589991 -2.13456727 60.32131152 -2.13037109 57.89672852 C-2.12499169 54.18176233 -2.1303445 50.4669157 -2.13671875 46.75195312 C-2.13605836 44.39062473 -2.13477802 42.02929642 -2.1328125 39.66796875 C-2.13483673 38.55753708 -2.13686096 37.44710541 -2.13894653 36.30302429 C-2.13579437 35.27127579 -2.13264221 34.23952728 -2.12939453 33.17651367 C-2.12859894 32.27100266 -2.12780334 31.36549164 -2.12698364 30.43254089 C-2.00744914 28.14269816 -1.58530187 26.20615351 -1 24 C-1.12769569 21.73046398 -1.12769569 21.73046398 -1.5 19.4375 C-1.96304255 16.31722466 -2.02791572 15.08374717 -1 12 C-1.165 11.34 -1.33 10.68 -1.5 10 C-2 8 -2 8 -1 5 C-0.65179959 3.33637583 -0.31595508 1.67004829 0 0 Z " fill="#BBFAFA" transform="translate(528,686)"/>
</svg>
